<svg width="21" height="22" viewBox="0 0 21 22" fill="none" xmlns="http://www.w3.org/2000/svg">
<path d="M8.91017 19.6179H4.61199C3.21925 19.6128 2.09003 18.4877 2.07979 17.095V8.54538C2.08253 8.07915 2.29115 7.63796 2.64977 7.34002L3.40663 6.77939C3.68294 6.485 3.71103 6.03578 3.47356 5.70925C3.23608 5.38273 2.80007 5.27105 2.43486 5.44321L1.65932 6.02253C0.87701 6.62785 0.412762 7.55634 0.397896 8.54538V17.1044C0.403034 19.4296 2.28674 21.3133 4.61199 21.3185H8.91017C9.37462 21.3185 9.75112 20.942 9.75112 20.4775C9.75112 20.0131 9.37462 19.6366 8.91017 19.6366V19.6179Z" fill="white"/>
<path d="M20.59 8.52669C20.5802 7.54491 20.1311 6.61918 19.366 6.00384L12.9094 0.855359C11.4905 -0.28512 9.46937 -0.28512 8.05054 0.855359L6.00423 2.34104C5.61977 2.61712 5.53192 3.1526 5.808 3.53705C6.08409 3.92151 6.61957 4.00936 7.00402 3.73328L9.07836 2.18219C9.89254 1.51189 11.0674 1.51189 11.8815 2.18219L18.3382 7.33067C18.7098 7.62524 18.9293 8.07122 18.9362 8.54538V17.1044C18.9362 18.4977 17.8066 19.6272 16.4133 19.6272H14.4978C14.3017 19.6272 14.1427 19.4683 14.1427 19.2722V15.4131C14.1428 14.1834 13.1486 13.1851 11.9189 13.1799H9.11574C8.52346 13.1799 7.95544 13.4152 7.53664 13.834C7.11783 14.2528 6.88255 14.8209 6.88255 15.4131V16.8895C6.88255 17.3539 7.25906 17.7304 7.7235 17.7304C8.18794 17.7304 8.56445 17.3539 8.56445 16.8895V15.4131C8.56194 15.2678 8.61793 15.1275 8.71984 15.0239C8.82175 14.9202 8.96103 14.8618 9.1064 14.8618H11.9096C12.2089 14.8618 12.4515 15.1045 12.4515 15.4038V19.2722C12.4566 20.3986 13.3713 21.3091 14.4978 21.3091H16.3666C18.694 21.3091 20.5807 19.4224 20.5807 17.095L20.59 8.52669Z" fill="white"/>
</svg>
